<svg width="1018" height="709" viewBox="0 0 1018 709" fill="none" xmlns="http://www.w3.org/2000/svg">
<g clip-path="url(#clip0_4_61)">
<path fill-rule="evenodd" clip-rule="evenodd" d="M768.964 404.315C770.212 405.863 771.466 406.051 777.464 405.594C781.334 405.299 788.325 404.782 793 404.446C798.028 404.085 801.686 403.359 801.956 402.668C802.207 402.025 802.512 396.55 802.634 390.5C802.757 384.45 803.07 377.025 803.331 374C803.591 370.975 803.578 365.462 803.301 361.75C803.024 358.038 802.479 355 802.09 355C801.702 355 800.96 356.913 800.442 359.25C800.074 360.911 799.849 361.922 799.236 362.558C798.278 363.549 796.374 363.624 791.5 363.818C787.1 363.993 780.687 363.845 777.25 363.488C774.061 363.158 772.499 362.996 771.734 362.13C771 361.299 771 359.82 771 356.92C771 353.664 770.606 351 770.125 351C769.644 351 768.941 354.938 768.563 359.75C768.185 364.562 767.791 376.15 767.687 385.5C767.537 399.141 767.789 402.859 768.964 404.315ZM781.508 395.738C781.181 397.519 780.146 399.345 779.207 399.796C778.268 400.247 775.925 400.365 774 400.058C773.003 399.899 772.29 399.785 771.776 399.404C770.486 398.445 770.452 395.797 770.332 386.5C770.211 377.16 770.521 373.13 771.432 372.185C772.212 371.377 774.397 370.992 777.1 371.185C778.661 371.297 779.667 371.369 780.331 371.884C781.538 372.821 781.606 375.224 781.801 382C781.966 387.775 781.834 393.957 781.508 395.738ZM798.889 398.75C798.211 400.567 797.282 401 794.06 401C791.244 401 789.825 400.485 789.237 399.25C788.779 398.288 788.264 392.166 788.092 385.646C787.845 376.272 788.085 373.486 789.24 372.331C790.197 371.375 792.218 370.979 795.095 371.185C799.093 371.472 799.541 371.771 800.049 374.5C800.357 376.15 800.41 381.775 800.168 387C799.927 392.225 799.351 397.513 798.889 398.75Z" fill="currentColor"/>
<path d="M662.658 403.256C662.95 403.728 664.144 403.976 665.311 403.807C666.478 403.638 668.111 402.288 668.94 400.807C669.768 399.325 670.152 397.819 669.792 397.459C669.432 397.099 667.561 398.063 665.633 399.601C663.705 401.14 662.366 402.784 662.658 403.256Z" fill="currentColor"/>
<path d="M649.83 400.526C650.727 402.496 651.696 403 654.585 403C657.413 403 658.081 402.669 657.61 401.499C657.277 400.673 656.523 398.761 655.932 397.249C655.342 395.737 654.599 389.91 654.282 384.3C653.799 375.784 653.98 373.679 655.375 371.55C656.851 369.297 657.728 369 662.9 369C666.724 369 669.162 368.51 669.927 367.587C670.631 366.74 670.98 363.663 670.8 359.897C670.504 353.704 670.455 353.608 667.156 352.757C665.317 352.282 661.956 352.03 659.688 352.197C655.899 352.475 655.492 352.784 654.68 356C654.195 357.925 653.296 360.551 652.684 361.836C652.071 363.12 651.512 366.945 651.442 370.336C651.371 373.726 650.726 381.349 650.008 387.276C649.028 395.37 648.983 398.668 649.83 400.526Z" fill="currentColor"/>
<path fill-rule="evenodd" clip-rule="evenodd" d="M711.899 365C711.514 366.375 711.154 375.499 711 403.051L726.668 402.775C738.4 402.569 742.443 402.175 742.765 401.206C743.073 400.281 742.494 400.089 740.732 400.531C739.377 400.871 736.392 400.644 734.1 400.027C732.812 399.68 731.922 399.441 731.325 398.886C729.99 397.644 730.122 394.826 730.547 385.702C730.886 378.441 731.337 371.938 731.55 371.25C731.804 370.43 734.023 370 738.001 370C740.517 370 742.029 369.942 743 369.678V403H745V368H744.801C744.83 367.928 744.858 367.853 744.887 367.776C745.34 366.553 745.799 362.503 745.908 358.776C746.03 354.573 745.706 352 745.053 352C744.46 352 744 354.123 744 356.857C744 358.804 744 359.971 743.435 360.701C742.592 361.791 740.49 361.906 735.25 362.195C730.437 362.46 723.372 362.637 719.549 362.589C712.956 362.505 712.563 362.628 711.899 365ZM725.189 397.25C724.846 398.672 723.658 399 718.856 399C716.77 399 715.421 399 714.559 398.351C712.981 397.162 713.044 393.794 713.223 384.25C713.406 374.519 713.468 371.208 715.068 370.081C715.893 369.5 717.128 369.5 719 369.5C720.971 369.5 722.235 369.5 723.072 370.098C724.571 371.17 724.699 374.159 725.055 382.5C725.361 389.65 725.421 396.288 725.189 397.25Z" fill="currentColor"/>
<path fill-rule="evenodd" clip-rule="evenodd" d="M578.25 401.039C579.487 401.575 584.325 401.818 589 401.58C593.675 401.342 598.287 400.841 599.25 400.466C600.212 400.092 601 399.384 601 398.893C601 398.402 600.19 398 599.2 398C598.21 398 596.86 397.46 596.2 396.8C595.431 396.031 595.026 392.348 595.074 386.55C595.115 381.573 595.452 375.495 595.824 373.044C596.462 368.838 596.72 368.542 600.401 367.778C603.314 367.173 604.902 367.361 606.669 368.519C608.763 369.891 609.102 369.897 609.612 368.568C609.929 367.742 609.772 365.814 609.263 364.283C608.436 361.794 607.714 361.42 602.419 360.745C599.163 360.329 592.45 359.879 587.5 359.745C582.5 359.609 580.278 359.548 579.204 358.407C578.346 357.494 578.222 355.889 578 353C577.767 349.969 577.642 348.351 577.5 348.35C577.338 348.348 577.153 350.464 576.756 355C576.347 359.675 576.009 371.727 576.006 381.782C576 399.789 576.034 400.079 578.25 401.039ZM587.875 397.098C587.119 397.577 585.348 397.976 583.941 397.985C582.534 397.993 580.608 397.434 579.661 396.742C578.15 395.637 577.974 393.774 578.22 381.492C578.402 372.372 578.466 369.197 580.011 368.091C580.836 367.5 582.085 367.5 584 367.5C585.901 367.5 587.145 367.5 587.954 368.093C589.485 369.216 589.457 372.465 589.375 381.863C589.28 392.859 588.928 396.431 587.875 397.098Z" fill="currentColor"/>
<path d="M508.694 400.3C509.687 400.557 514.122 400.82 518.55 400.884C523.624 400.957 527.043 400.556 527.8 399.8C528.484 399.116 528.941 396.213 528.864 393.05C528.789 389.997 528.521 388.625 528.268 390C528.015 391.375 527.346 393.062 526.782 393.75C526.217 394.438 524.285 395 522.488 395C520.691 395 518.231 394.198 517.021 393.219C514.888 391.491 514.843 391.052 515.549 378.673C516.01 370.582 516.178 367.62 517.669 366.61C518.531 366.027 519.833 366.096 521.888 366.204C524.188 366.325 525.545 366.397 526.385 367.093C527.594 368.095 527.729 370.393 528.058 376C528.465 382.917 528.623 380.471 528.64 367C528.653 356.825 528.481 350.294 528.257 352.487C528.034 354.68 527.379 357.043 526.803 357.737C526.064 358.628 522.165 359 513.577 359C505.439 359 501.002 358.602 500.2 357.8C499.54 357.14 499 354.488 499 351.907C499 348.607 498.543 347.039 497.462 346.624C496.616 346.299 495.729 346.589 495.49 347.267C495.251 347.945 495.05 359.638 495.043 373.25C495.034 393.215 495.032 397.075 496.555 397.821C496.92 398 497.373 398 497.934 398C499.53 398 501.548 398.273 502.418 398.607C503.288 398.941 504 398.813 504 398.323C504 397.832 502.65 396.634 501 395.659C500.262 395.223 499.706 394.895 499.286 394.44C498 393.045 498 390.463 498 379.963C498 369.191 498 366.752 499.16 365.909C499.5 365.662 499.939 365.551 500.506 365.409C501.885 365.063 504.51 365.061 506.339 365.404C507.287 365.582 507.965 365.709 508.476 366.071C509.758 366.98 509.992 369.367 510.812 377.74C511.919 389.039 511.881 389.61 509.73 393.943C508.503 396.414 507.362 398.749 507.194 399.134C507.027 399.518 507.702 400.043 508.694 400.3Z" fill="currentColor"/>
<path d="M443.602 397.073C447.396 397.389 454.25 397.726 458.833 397.823C465.113 397.956 467.065 397.692 466.756 396.75C466.53 396.062 464.133 395.275 461.43 395C457.355 394.586 456.301 394.051 455.261 391.873C454.479 390.232 454.05 385.349 454.121 378.873C454.183 373.168 454.61 367.512 455.071 366.304C455.763 364.487 456.822 364.055 461.204 363.804C465.823 363.539 466.541 363.213 466.819 361.252C467.048 359.643 466.479 358.767 464.819 358.174C463.543 357.717 459.012 357.541 454.75 357.781C449.208 358.094 447 358.596 447 359.542C447 360.27 447.9 361.151 449 361.5C450.1 361.849 451.036 362.667 451.081 363.317C451.126 363.968 451.092 369.848 451.006 376.384C450.919 382.92 450.449 389.32 449.96 390.606C449.463 391.913 447.89 393.24 446.395 393.616C444.923 393.985 442.545 393.876 441.109 393.372C438.539 392.471 438.492 392.282 438 380.722C437.709 373.895 437.082 368.988 436.5 368.99C435.904 368.992 435.376 373.951 435.194 381.247C435.026 387.986 435.298 394.175 435.797 395C436.399 395.995 439.029 396.693 443.602 397.073Z" fill="currentColor"/>
<path d="M608.178 375.082C607.948 377.33 608.23 378.09 609.178 377.774C609.905 377.532 610.5 376.133 610.5 374.667C610.5 373.2 610.05 371.989 609.5 371.975C608.95 371.961 608.355 373.359 608.178 375.082Z" fill="currentColor"/>
<path d="M436 353C436 355.75 436.45 358 437 358C437.55 358 438 355.75 438 353C438 350.25 437.55 348 437 348C436.45 348 436 350.25 436 353Z" fill="currentColor"/>
<path d="M850 325.066C850 325.58 854.05 326 859 326C863.95 326 868 325.647 868 325.216C868 324.784 866.667 323.644 865.039 322.682C863.064 321.515 861.885 319.862 861.498 317.717C861.18 315.947 861.336 312.327 861.845 309.671C862.354 307.015 862.539 303.956 862.256 302.872C861.965 301.759 861.056 301.035 860.164 301.207C859.297 301.374 858.302 302.633 857.954 304.005C857.605 305.377 857.53 309.021 857.785 312.102C858.085 315.704 857.757 318.739 856.868 320.602C855.925 322.578 854.612 323.601 852.742 323.816C851.234 323.99 850 324.553 850 325.066Z" fill="currentColor"/>
<path d="M694 296H672.837L673.168 308.583C673.46 319.661 673.732 321.335 675.441 322.583C676.529 323.377 679.678 324 682.609 324C685.484 324 688.548 323.727 689.418 323.393C690.288 323.059 691 322.384 691 321.893C691 321.402 690.089 321 688.975 321C687.722 321 686.579 320.023 685.975 318.435C685.439 317.024 685 312.299 685 307.935C685 301.791 684.683 300 683.596 300C682.514 300 682.114 302.183 681.846 309.537C681.588 316.637 681.116 319.321 680 320.036C679.175 320.565 677.825 320.88 677 320.737C675.791 320.527 675.445 318.293 675.217 309.238C675.063 303.108 674.993 300.322 676.346 299.055C677.473 298 679.588 298 683.467 298C687.373 298 689.491 298 690.639 299.055C692 300.305 692 303.035 692 309C692 315.667 692.394 320 693 320C693.611 320 694 315.333 694 308V296Z" fill="currentColor"/>
<path d="M870 324C870.617 324 871 318.833 871 297H861.045C854.223 297 852.076 297 851.242 298.046C850.859 298.527 850.753 299.227 850.598 300.25C850.328 302.038 849.872 306.882 849.586 311.016C849.299 315.15 849.328 319.538 849.649 320.766C849.97 321.995 850.631 323 851.116 323C851.602 323 852 317.825 852 311.5C852 305.173 852 302.327 853.416 301.046C854.573 300 856.677 300 860.5 300C864.263 300 866.361 300 867.529 301.042C869 302.353 869 305.313 869 312C869 319.333 869.389 324 870 324Z" fill="currentColor"/>
<path d="M537.492 319.75C537.787 320.58 540.169 321 544.575 321C550.08 321 551.111 320.744 550.61 319.499C550.277 318.673 549.554 316.844 549.003 315.434C548.451 314.024 548 309.299 548 304.935C548 298.548 547.707 297 546.5 297C545.287 297 545 298.59 545 305.309C545 310.6 544.522 314.271 543.684 315.418C542.96 316.408 541.497 317.051 540.434 316.847C538.695 316.514 538.471 315.444 538.215 306.238C538.064 300.811 537.993 298.261 539.231 297.062C540.328 296 542.454 296 546.465 296C550.218 296 552.321 296 553.515 297.042C555.037 298.369 555.085 301.387 555.192 308.25C555.305 315.431 555.533 317.81 555.742 314C555.938 310.425 556.545 307.344 557.091 307.153C557.708 306.937 557.648 306.281 556.93 305.415C556.295 304.651 556.016 303.4 556.309 302.636C556.603 301.872 556.594 299.391 556.289 297.123C556.089 295.631 555.962 294.678 555.436 294.071C554.509 293 552.345 293 546.368 293C541.386 293 539.053 293 537.929 294.166C536.939 295.192 536.886 297.121 536.786 300.75C536.668 305.013 536.679 310.75 536.809 313.5C536.94 316.25 537.247 319.062 537.492 319.75Z" fill="currentColor"/>
</g>
<defs>
<clipPath id="clip0_4_61">
<rect width="436" height="113" fill="white" transform="translate(435 293)"/>
</clipPath>
</defs>
</svg>
