<svg width="1018" height="709" viewBox="0 0 1018 709" fill="none"
            class="mask"
            id="fensterladen-mask"
            style="color: #0000ff" xmlns="http://www.w3.org/2000/svg">
<g clip-path="url(#clip0_4_88)">
<path fill-rule="evenodd" clip-rule="evenodd" d="M470.094 452C465.344 452 464 451.669 464 450.5C464 449.675 463.588 449 463.083 449C462.579 449 461.91 449.562 461.595 450.25C461.281 450.937 461.262 449.925 461.554 448C461.846 446.075 462.249 443.712 462.449 442.75C462.649 441.787 462.517 441 462.156 440.999C461.795 440.999 461.568 433.236 461.652 423.749C461.735 414.262 462.112 405.734 462.49 404.798C462.868 403.862 462.912 402.666 462.587 402.141C462.263 401.616 462.785 401.391 463.749 401.64C464.712 401.89 466.625 402.164 468 402.249C469.375 402.334 470.831 402.875 471.235 403.452C471.736 404.166 471.974 404.146 471.985 403.387C471.993 402.775 473.21 402.408 474.689 402.57C476.308 402.748 477.857 402.211 478.581 401.22C479.558 399.884 480.065 399.809 481.287 400.823C482.113 401.509 483.389 401.942 484.121 401.785C484.883 401.622 485.613 402.569 485.827 404C486.033 405.375 486.719 406.83 487.351 407.235C488.11 407.72 487.953 407.974 486.888 407.985C485.705 407.996 484.965 409.664 484.108 414.25C483.466 417.687 482.5 422.85 481.961 425.721C481.422 428.593 480.339 433.993 479.554 437.721C478.71 441.727 478.51 444.636 479.063 444.833C479.578 445.017 480 445.804 480 446.583C480 447.362 479.378 448 478.617 448C477.856 448 476.998 448.9 476.71 450C476.26 451.724 475.346 452 470.094 452ZM951.643 409.81C951.015 409.706 943.3 409.294 934.5 408.895C925.7 408.496 917.15 408.019 915.5 407.835C912.5 407.5 912.5 407.5 912.224 391.075C912.036 379.833 912.3 374.433 913.06 373.963C913.671 373.585 914.113 372.977 914.043 372.612C913.972 372.246 914.076 371.621 914.272 371.223C914.469 370.825 914.594 370.05 914.55 369.5C914.506 368.95 914.112 367.937 913.676 367.25C913.189 366.483 913.388 365.994 914.191 365.985C915.007 365.975 915.116 365.692 914.483 365.235C913.923 364.83 913.387 362.818 913.291 360.762C913.192 358.629 913.737 356.406 914.559 355.584C915.352 354.791 916 352.761 916 351.071C916 348.106 916.153 348 920.417 348C922.846 348 924.984 347.549 925.167 346.998C925.39 346.329 926.661 346.329 928.994 346.998C930.915 347.549 934.387 348 936.708 348C939.03 348 942.974 348.694 945.472 349.542C947.971 350.39 950.799 350.953 951.757 350.792C952.748 350.626 953.388 351.052 953.24 351.779C953.098 352.482 952.444 353.917 951.788 354.967C950.869 356.439 950.867 357.406 951.779 359.188C952.454 360.507 953.078 366.934 953.231 374.157C953.383 381.289 953.115 386.575 952.618 386.266C952.116 385.955 951.962 390.952 952.261 397.859C952.642 406.664 952.472 409.948 951.643 409.81ZM818.222 409C817.795 409 816.674 408.1 815.732 407C814.79 405.9 812.89 405 811.51 405C809.404 405 809 404.531 809 402.083C809 400.479 808.438 398.938 807.75 398.659C806.809 398.277 806.789 397.946 807.668 397.318C808.43 396.773 808.774 393.475 808.657 387.83C808.559 383.071 808.708 379.32 808.99 379.493C809.271 379.667 809.61 376.365 809.743 372.155C809.876 367.945 809.6 362.812 809.131 360.75C808.655 358.659 808.659 357 809.139 357C809.613 357 810 355.668 810 354.039C810 352.411 810.707 350.498 811.572 349.789C812.436 349.08 813.983 347.74 815.009 346.812C816.035 345.884 817.016 345.508 817.188 345.977C817.359 346.446 819.975 346.755 823 346.665C828.5 346.5 828.5 346.5 828.17 361.5C827.988 369.75 827.538 383.025 827.17 391C826.5 405.5 826.5 405.5 822.75 405.81C820.297 406.013 819 406.618 819 407.56C819 408.352 818.65 409 818.222 409ZM651.416 403.199C649.812 403.436 645.688 403.466 642.25 403.267C636 402.904 636 402.904 636 399.393C636 397.307 635.594 396.133 635 396.5C634.45 396.84 634 396.731 634 396.259C634 395.786 634.453 394.947 635.007 394.393C635.571 393.829 636.304 384.417 636.671 373.023C637.276 354.281 637.196 352.711 635.664 353.298C634.749 353.65 634 353.549 634 353.075C634 352.602 634.675 351.955 635.5 351.638C636.325 351.322 637 349.972 637 348.638C637 347.258 637.754 345.917 638.75 345.526C639.713 345.147 643.795 344.581 647.823 344.269C655.146 343.7 655.146 343.7 655.019 353.1C654.95 358.27 655.254 371.106 655.696 381.625C656.26 395.039 656.176 401.051 655.416 401.759C654.82 402.314 653.02 402.962 651.416 403.199ZM542.466 400C535.223 400 535.178 399.983 535.46 397.419C535.615 396 535.21 394.34 534.558 393.732C533.812 393.035 533.592 391.124 533.964 388.563C534.289 386.328 534.644 378.652 534.754 371.504C534.893 362.374 535.331 358.208 536.226 357.5C536.927 356.946 537.631 355.875 537.792 355.121C537.952 354.367 537.485 353.018 536.753 352.125C536.021 351.231 535.297 349.278 535.144 347.786C534.92 345.599 535.363 344.947 537.426 344.429C538.834 344.076 539.809 343.497 539.593 343.143C539.377 342.789 541.671 342.364 544.691 342.197C548.137 342.007 549.955 342.264 549.571 342.886C549.234 343.431 549.675 344.278 550.551 344.768C551.846 345.493 552.133 347.501 552.09 355.511C552.061 360.93 551.626 365.774 551.125 366.275C550.615 366.785 550.564 368.579 551.008 370.343C551.445 372.079 551.876 378.818 551.967 385.318C552.077 393.2 551.736 397.613 550.944 398.568C550.111 399.571 547.571 400 542.466 400ZM422.179 397.936C419.605 397.902 416.551 397.49 415.391 397.021C413.932 396.431 413.085 394.932 412.64 392.152C412.287 389.943 412.449 386.95 412.999 385.502C413.55 384.054 414 381.34 414 379.47C414 377.097 414.932 375.008 417.084 372.557C419.701 369.577 420.06 368.549 419.453 365.786C419.06 363.995 418.097 361.551 417.314 360.356C416.53 359.16 415.832 357.354 415.762 356.341C415.692 355.328 415.939 353.309 416.31 351.853C416.704 350.312 418.458 348.337 420.505 347.129C423.419 345.41 424.452 345.249 426.517 346.19C428.134 346.926 429.362 348.63 430.01 351.038C430.56 353.08 430.885 362.469 430.733 371.903C430.569 382.068 430.852 389.452 431.428 390.028C432.057 390.657 431.977 391 431.2 391C430.54 391 430 391.868 430 392.928C430 393.989 429.293 395.564 428.429 396.428C427.424 397.433 425.169 397.977 422.179 397.936Z" fill="currentColor"/>
</g>
<defs>
<clipPath id="clip0_4_88">
<rect width="542" height="110" fill="currentColor" transform="translate(412 342)"/>
</clipPath>
</defs>
</svg>
