<svg width="1018" height="709" viewBox="0 0 1018 709" fill="none" xmlns="http://www.w3.org/2000/svg">
<g clip-path="url(#clip0_4_79)">
<path fill-rule="evenodd" clip-rule="evenodd" d="M106.839 449C104.163 449 103 448.563 103 447.559C103 446.766 103.364 445.893 103.809 445.618C104.254 445.342 104.334 442.53 103.985 439.367C103.637 436.205 102.823 433.441 102.176 433.225C101.529 433.009 101 432.394 101 431.857C101 431.321 101.482 431.179 102.071 431.543C102.817 432.005 102.935 429.979 102.46 424.852C102.086 420.808 101.17 416.528 100.426 415.34C99.6819 414.153 98.6373 410.553 98.1048 407.34C97.5723 404.128 96.6512 399.25 96.0579 396.5C95.4646 393.75 94.2946 387.962 93.458 383.639C92.6214 379.315 91.2921 374.531 90.5042 373.008C89.4359 370.942 89.3167 369.382 90.0357 366.875C90.5661 365.026 91 362.272 91 360.756C91 358.177 90.7251 358 86.7181 358C82.8814 358 82.4149 357.742 82.2309 355.519C82.0776 353.667 82.7843 352.645 85.0166 351.491C86.6616 350.64 90.4418 349.795 93.417 349.613C97.6083 349.356 99.9155 349.828 103.663 351.708C106.323 353.043 109.4 355.018 110.5 356.097C111.821 357.393 112.596 359.66 112.783 362.779C112.939 365.375 113.318 372.9 113.627 379.5C113.965 386.728 113.757 393.289 113.104 396C112.487 398.564 112.353 402.005 112.792 404C113.215 405.925 113.393 410.365 113.186 413.868C112.877 419.108 112.473 420.325 110.905 420.735C109.857 421.009 109 421.578 109 422C109 422.421 109.9 423.002 111 423.289C112.67 423.726 113 424.653 113 428.906C113 431.708 113.45 434 114 434C114.55 434 115 434.873 115 435.941C115 437.008 114.55 438.16 114 438.5C113.45 438.84 113 440.195 113 441.512C113 442.828 112.478 445.052 111.839 446.453C110.889 448.538 109.983 449 106.839 449ZM213.975 441.353C213.164 441.608 211.052 441.399 209.281 440.888C207.511 440.377 205.261 438.779 204.281 437.337C203.302 435.895 201.299 433.586 199.832 432.207C197.608 430.116 197.32 429.287 198.104 427.227C198.73 425.581 198.678 424.316 197.949 423.438C197.347 422.713 196.926 421.806 197.013 421.422C197.1 421.037 196.57 420.342 195.835 419.877C194.81 419.227 194.905 419.027 196.244 419.015C197.442 419.004 197.888 418.348 197.67 416.917C197.495 415.772 196.71 414.429 195.926 413.933C194.777 413.206 194.764 413.027 195.857 413.015C196.637 413.006 196.974 412.375 196.651 411.532C196.341 410.724 196.457 409.835 196.91 409.556C197.362 409.276 197.541 407.799 197.308 406.273C197.075 404.748 196.427 402.665 195.868 401.645C195.309 400.625 195.269 400.048 195.779 400.363C196.325 400.701 196.707 396.738 196.708 390.718C196.709 385.098 196.999 378.925 197.352 377C197.705 375.075 198.068 371.096 198.159 368.159C198.259 364.907 198.918 362.225 199.843 361.299C200.932 360.21 202.657 359.92 205.931 360.273C208.444 360.545 212.188 361.5 214.25 362.396C218 364.026 218 364.026 218 385.878C218 407.025 217.927 407.822 215.75 410.59C214.169 412.601 213.501 414.795 213.502 417.975C213.504 421.142 214.196 423.422 215.81 425.573C217.789 428.212 218.021 429.362 217.446 433.695C217.078 436.472 216.478 439.226 216.113 439.817C215.748 440.407 214.786 441.098 213.975 441.353ZM35 421C8.65 421 1 420.734 1 420.41C1 420.086 1.92158 419.073 3.04795 418.16C5.04069 416.544 5.09327 415.61 4.99845 383.5C4.94486 365.35 4.56242 347.912 4.14859 344.75C3.56747 340.309 3.69257 339 4.69808 339C5.41414 339 6 338.592 6 338.093C6 337.595 6.7875 337.372 7.75 337.597C8.7125 337.823 12.425 337.568 16 337.031C19.575 336.493 23.2378 336.281 24.1396 336.559C25.0414 336.837 25.994 338.188 26.2565 339.561C26.519 340.934 28.362 343.507 30.3522 345.279C33.9205 348.455 33.9782 348.63 34.5092 357.861C34.8057 363.015 34.5497 369.968 33.9396 373.333C33.1451 377.714 33.1384 379.546 33.9158 379.805C34.5129 380.004 35 382.547 35 385.466C35 389.925 34.6826 390.849 33 391.289C31.9 391.577 31.003 392.642 31.0066 393.656C31.0102 394.67 31.9072 396.85 33 398.5C34.64 400.976 34.988 403.202 34.9934 411.25L35 421Z" fill="currentColor"/>
</g>
<defs>
<clipPath id="clip0_4_79">
<rect width="217" height="113" fill="currentColor" transform="translate(1 336)"/>
</clipPath>
</defs>
</svg>
