<svg width="1018" height="709" viewBox="0 0 1018 709" fill="none" xmlns="http://www.w3.org/2000/svg">
<path fill-rule="evenodd" clip-rule="evenodd" d="M833 431V362H856.571C876.19 362 880.394 362.252 881.643 363.5C882.798 364.655 882.839 365.004 881.821 365.015C880.796 365.027 880.777 365.207 881.739 365.817C882.691 366.422 882.903 373.663 882.656 397.145C882.479 413.942 882.049 428.431 881.699 429.342C881.349 430.254 880.374 431 879.531 431C878.689 431 878.112 431.562 878.25 432.25C878.394 432.971 877.443 433.526 876 433.563C874.625 433.597 869.225 433.468 864 433.275C858.775 433.083 854.35 432.492 854.167 431.963C853.982 431.429 849.196 431 843.417 431H833ZM859 403C859.55 403 860 400.948 860 398.441C860 395.656 859.611 394.122 859 394.5C858.45 394.84 858 396.891 858 399.059C858 401.227 858.45 403 859 403Z" fill="currentColor"/>
</svg>
